<?xml version="1.0" standalone="no"?><!DOCTYPE svg PUBLIC "-//W3C//DTD SVG 1.1//EN" "http://www.w3.org/Graphics/SVG/1.1/DTD/svg11.dtd"><svg t="1565169247612" class="icon" viewBox="0 0 1024 1024" version="1.1" xmlns="http://www.w3.org/2000/svg" p-id="2142" xmlns:xlink="http://www.w3.org/1999/xlink" width="160" height="160"><defs><style type="text/css"></style></defs><path d="M512 0C228.906667 0 0 229.248 0 512.64c0 56.96 9.728 111.232 26.368 162.56h152.618667V244.437333L512 577.92l333.013333-333.44v430.72h152.618667c16.597333-51.328 26.368-105.6 26.368-162.56C1024 229.333333 795.093333 0 512 0z m-76.288 653.098667l-145.792-145.962667v270.976H75.008C165.12 925.397333 327.594667 1024 512 1024s348.245333-98.602667 437.12-245.930667h-215.04v-270.976l-144.469333 145.962667-76.288 76.373333-77.397334-76.373333h-0.213333z" fill="#158dff" p-id="2143"></path></svg>